<?xml version="1.0" encoding="utf-8"?>
<!-- Generator: Adobe Illustrator 23.0.1, SVG Export Plug-In . SVG Version: 6.00 Build 0)  -->
<svg version="1.1" id="Layer_1" xmlns="http://www.w3.org/2000/svg" xmlns:xlink="http://www.w3.org/1999/xlink" x="0px" y="0px"
	 viewBox="0 0 463 273" style="enable-background:new 0 0 463 273;" xml:space="preserve">
<style type="text/css">
	.st0{fill:#DDDDDD;stroke:#FFFFFF;stroke-width:0.25;}
	.st1{fill:#888888;stroke:#FFFFFF;stroke-width:0.25;}
	.st2{fill:#888888;}
</style>
<rect class="st0" width="463" height="273"/>
<path class="st1" d="M8.75,11.43h103.62v7.07h-10.83c0,0-14.13,0.94-8.48,21.2c5.65,20.25,48.98,146.96,48.98,146.96L202.8,33.11
	c0,0,4.71-14.13-9.89-14.13c-11.77,0-11.77,0-11.77,0v-8.01h56.52v7.54h-13.19c0,0-8.24-0.71-15.07,17.43
	c-7.77,20.64-92.32,232.21-92.32,232.21L35.6,29.79c0,0-2.35-10.83-14.6-10.83s-12.25,0-12.25,0S8.75,11.43,8.75,11.43z"/>
<g>
	<g>
		<path class="st2" d="M311.38,252.82l-17.9-27.32c18.14-20.96,20.25-40.74,21.43-48.75s7.07-11.78,7.07-11.78h9.89v-5.65h-42.39
			v5.18l7.85,1.57c9.42,0,9.42,12.56,9.42,12.56c-5.02,32.03-17.59,40.82-17.59,40.82l-43.96-69.71c11.3-5.65,31.4-21.98,31.4-21.98
			c23.86-19.47-3.85-40.27-3.85-40.27c-38.66-24.29-67.12,3.84-67.12,3.84c-25.12,18.21,4.39,68.46,4.39,68.46
			c-9.42,3.14-22.61,11.3-22.61,11.3s-41.72,25.34-22.61,64.69c31.59,65.02,104.88,14.45,104.88,14.45
			c45.84,43.33,62.88-3.53,62.88-3.53C316.8,262.71,311.38,252.82,311.38,252.82z M240.96,86.79c10.83,0,18.37,11.3,18.37,28.73
			s-19.31,30.62-19.31,30.62c-1.88-0.47-19.78-33.44-20.25-41.92C219.29,95.74,230.13,86.79,240.96,86.79z M241.43,254
			c-23.55,2.36-40.51-15.54-48.04-43.8c-7.54-28.26,20.73-43.33,20.73-43.33l50.4,77.25C264.51,244.11,264.98,251.64,241.43,254z"/>
	</g>
	<g>
		<path class="st1" d="M311.38,252.82l-17.9-27.32c18.14-20.96,20.25-40.74,21.43-48.75s7.07-11.78,7.07-11.78h9.89v-5.65h-42.39
			v5.18l7.85,1.57c9.42,0,9.42,12.56,9.42,12.56c-5.02,32.03-17.59,40.82-17.59,40.82l-43.96-69.71c11.3-5.65,31.4-21.98,31.4-21.98
			c23.86-19.47-3.85-40.27-3.85-40.27c-38.66-24.29-67.12,3.84-67.12,3.84c-25.12,18.21,4.39,68.46,4.39,68.46
			c-9.42,3.14-22.61,11.3-22.61,11.3s-41.72,25.34-22.61,64.69c31.59,65.02,104.88,14.45,104.88,14.45
			c45.84,43.33,62.88-3.53,62.88-3.53C316.8,262.71,311.38,252.82,311.38,252.82z M240.96,86.79c10.83,0,18.37,11.3,18.37,28.73
			s-19.31,30.62-19.31,30.62c-1.88-0.47-19.78-33.44-20.25-41.92C219.29,95.74,230.13,86.79,240.96,86.79z M241.43,254
			c-23.55,2.36-40.51-15.54-48.04-43.8c-7.54-28.26,20.73-43.33,20.73-43.33l50.4,77.25C264.51,244.11,264.98,251.64,241.43,254z"/>
	</g>
</g>
<path class="st1" d="M335.01,5.93l89.81,231.74c0,0,6.91,21.35,21.98,21.35s11.3,0,11.3,0v8.47H351.97v-8.47h11.62
	c0,0,11.93-2.52,5.96-17.59c-5.96-15.07-60.6-159.83-60.6-159.83L335.01,5.93z"/>
</svg>
